<?xml version="1.0" encoding="utf-8"?>
<!-- Generator: Adobe Illustrator 18.0.0, SVG Export Plug-In . SVG Version: 6.00 Build 0)  -->
<!DOCTYPE svg PUBLIC "-//W3C//DTD SVG 1.1//EN" "http://www.w3.org/Graphics/SVG/1.1/DTD/svg11.dtd">
<svg version="1.1" id="Layer_1" xmlns="http://www.w3.org/2000/svg" xmlns:xlink="http://www.w3.org/1999/xlink" x="0px" y="0px"
	 viewBox="0 0 360 360" enable-background="new 0 0 360 360" xml:space="preserve">
<g>
	<path d="M204.5,281.3c5.3,1.2,11.1,1.8,17.7,1.8c17.2,0,35-6.4,53.1-19.4c8.1-5.9,15.8-12.4,23-19.8c2.7-2.8,5.3-5.5,7.8-8.3
		c6.3-14.4,8.8-30.2,7.2-47.4c-3.2,3-6.6,5.8-10.1,8.4c-13.7,10.1-26,15.1-37.1,15.1c-8.6,0-12.8-6.8-12.8-20.4
		c0-3.5,0.3-7.4,0.9-11.7L204.5,281.3z"/>
	<path d="M145.2,130c19.4-13.2,42.9-21.3,70.2-24.3l10.8-22c-0.8,0-1.6,0-2.4,0c-18.3,0-36.2,2.4-53.9,7.1
		c-11.9,5.9-22.6,14.5-32.1,25.9c-10.2,12.2-16.5,25.4-19,39.5C124.6,146.7,133.4,138.1,145.2,130z"/>
	<path d="M335.1,162.4c-4.6,6.9-9.6,13.2-15,18.9l4.2,31c3.8-5.5,7.6-11.5,11.6-18.2c6.2-10.5,9.3-18.3,9.3-23.4
		C345.2,164.8,341.9,162,335.1,162.4z"/>
	<path d="M175.6,187.1c-16.4,16.4-30.9,24.6-43.7,24.6c-14.6,0-21.8-8.7-21.8-26.1c0-2.1,0.1-4.2,0.4-6.2l-7.9-58
		c-14.7,9.9-27.3,21.3-37.9,34.1c-18,21.6-27,43.9-27,66.8c0,18.2,5.5,32.8,16.7,43.9c11.3,11.3,26.2,16.9,45,16.9
		c11.3,0,22-1.8,32-5.3L175.6,187.1z"/>
</g>
</svg>
