<?xml version="1.0" encoding="utf-8"?>
<!-- Generator: Adobe Illustrator 18.0.0, SVG Export Plug-In . SVG Version: 6.00 Build 0)  -->
<!DOCTYPE svg PUBLIC "-//W3C//DTD SVG 1.1//EN" "http://www.w3.org/Graphics/SVG/1.1/DTD/svg11.dtd">
<svg version="1.1" id="Layer_1" xmlns="http://www.w3.org/2000/svg" xmlns:xlink="http://www.w3.org/1999/xlink" x="0px" y="0px"
	 viewBox="0 0 360 360" enable-background="new 0 0 360 360" xml:space="preserve">
<g>
	<path d="M99.7,206.9c7.1,5.6,14.3,10,21.9,13.2c-3.1-5-5.3-11-6.6-18.1c-2.3-12.3-1.7-34.7,2-67.3c3.6-32.5,4.5-53.6,2.7-63.3
		c-1.8-9.7-6.4-13.8-13.6-12.4c-5.3,1-10.2,5.6-14.8,13.8c-4.5,8.2-7.4,19.3-8.6,33.1l-7.4-0.3c4-36.1,15.7-55.9,35.3-59.6
		c18.2-3.4,29.1,4.7,32.8,24.3c1.5,7.8,0.8,28.1-2.1,60.8c-2.9,32.7-3.4,53.9-1.5,63.7c3.6,19,12.5,27.2,26.7,24.5
		c17.9-3.4,33.3-19.8,46.2-49.3c12.9-29.5,17.2-55.6,12.9-78.4c-4.3-22.8-15-40.1-32.3-51.9c2.8-3.4,5.6-6.1,8.4-8.2
		c-11.6-6.1-24.6-9.2-38.8-9.2c-25.9,0-48.4,9.6-67.5,28.8C73.6,72.9,62.8,99,62.8,129.4C62.8,161.6,75.1,187.4,99.7,206.9z"/>
	<path d="M221.7,209.4c7-23.9,10.3-49,10-75.3c-4.7,26.1-13.3,48.5-25.8,67.4c-1.6,2.3-3.2,4.5-4.8,6.6
		c-9.3,50.1-28.3,84.3-56.9,102.7c-6.3,4.1-12.4,8.7-17.1,12.7c0.9-0.1,1.8-0.2,2.7-0.4c9.8-1.8,20.5-7.5,32-17.1
		c11.5-9.5,22.7-22.1,33.4-37.5C205.9,253,214.7,233.3,221.7,209.4z"/>
	<path d="M233.9,61.2c0.7,2.9,1.3,5.9,1.9,9.2c5.8,30.8,7.7,59.6,5.8,86.5c-1.9,26.9-6.6,50.3-14,70.2c-7.4,19.9-16.8,37.7-28,53.5
		c-3.4,5-6.9,9.6-10.5,13.9c17-14.9,31.2-32.6,42.5-53c17.1-31,25.7-64.1,25.7-99.2C257.2,110.2,249.4,83.2,233.9,61.2z"/>
</g>
</svg>
