<?xml version="1.0" encoding="utf-8"?>
<!-- Generator: Adobe Illustrator 18.0.0, SVG Export Plug-In . SVG Version: 6.00 Build 0)  -->
<!DOCTYPE svg PUBLIC "-//W3C//DTD SVG 1.1//EN" "http://www.w3.org/Graphics/SVG/1.1/DTD/svg11.dtd">
<svg version="1.1" id="Layer_1" xmlns="http://www.w3.org/2000/svg" xmlns:xlink="http://www.w3.org/1999/xlink" x="0px" y="0px"
	 viewBox="0 0 360 360" enable-background="new 0 0 360 360" xml:space="preserve">
<g>
	<path d="M88.5,100.1c13.3-17.9,27-27.1,46.2-30.5L116.2,34H51.6l36.5,66.1H88.5z"/>
	<path d="M240.6,85.6c3.6,0,10.5-1.7,18.2-4L284.9,34h-64.6l-21.1,42C214,80.6,227.4,85.6,240.6,85.6z"/>
	<path d="M202.8,285.3l21.3,40.7h70l-65-111.4C217.8,235.2,208.1,258.2,202.8,285.3z"/>
	<path d="M224.7,143.5l7.3-13.3c-15,7.9-31.2,9.6-47.5,9.6c-9.8,0-21-1.9-32.2-3.7c-11.2-1.9-21.9-3.7-30.3-3.7
		c-5.1,0-9.9,1.2-14.3,3.4l22.4,40.6L46,326h66.4l0.7-1.3C117.5,219.8,171.6,206.2,224.7,143.5z"/>
</g>
</svg>
