<?xml version="1.0" encoding="utf-8"?>
<!-- Generator: Adobe Illustrator 18.0.0, SVG Export Plug-In . SVG Version: 6.00 Build 0)  -->
<!DOCTYPE svg PUBLIC "-//W3C//DTD SVG 1.1//EN" "http://www.w3.org/Graphics/SVG/1.1/DTD/svg11.dtd">
<svg version="1.1" id="Layer_1" xmlns="http://www.w3.org/2000/svg" xmlns:xlink="http://www.w3.org/1999/xlink" x="0px" y="0px"
	 viewBox="0 0 360 360" enable-background="new 0 0 360 360" xml:space="preserve">
<g>
	<path d="M143,231.9l-8.8,33.8h4.7c9,0,16.1-3.7,22.3-18.6l7.8-17.7c9.6-22.3,23-27.9,35.7-27.9c14.6,0,26.7,10.2,26.7,25.8
		c0,1.4-0.1,2.8-0.3,4.1l56.9-207.6L123.1,85.9l-2.3,8.7l66.8-23.3L143,231.9z"/>
	<path d="M206.8,251.7c-13.7,0-23.9-10.2-23.9-19.2c0-8.7,1.9-15.8,5.6-19.2v-0.6c-13,3.7-19.2,45.3-34.8,53.4v0.6h2.5
		c32.9,0,41.9,17.4,41.9,47.5v9c0,5.8,1.6,10,4.7,11.2l26.4-96.3C225.5,246.5,217.2,251.7,206.8,251.7z"/>
	<path d="M144.1,313.8v-27c0-11.5-5-15.2-9.3-15.2h-2.2l-20.1,71.6h40.4C146.1,335.3,144.1,324.1,144.1,313.8z"/>
</g>
</svg>
