<?xml version="1.0" encoding="utf-8"?>
<!-- Generator: Adobe Illustrator 18.0.0, SVG Export Plug-In . SVG Version: 6.00 Build 0)  -->
<!DOCTYPE svg PUBLIC "-//W3C//DTD SVG 1.1//EN" "http://www.w3.org/Graphics/SVG/1.1/DTD/svg11.dtd">
<svg version="1.1" id="Layer_1" xmlns="http://www.w3.org/2000/svg" xmlns:xlink="http://www.w3.org/1999/xlink" x="0px" y="0px"
	 viewBox="0 0 360 360" enable-background="new 0 0 360 360" xml:space="preserve">
<g>
	<path d="M153.7,144.5v22c20.5-9.4,37.5-22,49.5-33.5v-29.2C185.7,111.5,167.7,125.7,153.7,144.5z"/>
	<path d="M203.3,235.6v-62.7c-13.9,7.3-30.3,14.6-49.5,21.7v47.2c4.8,1.3,9.9,1.9,15.1,1.9C179.9,243.7,191.6,240.6,203.3,235.6z"/>
	<path d="M153.7,90.6c15.6-9.9,32.5-17.4,49.5-21.4V42.5h37.6v-9H116.5v9h37.2V90.6z"/>
	<path d="M203.3,275.4c-16.2,8.9-33,15.4-49.5,18v31.5h-37.2v9h124.3v-9h-37.6V275.4z"/>
</g>
</svg>
