<?xml version="1.0" encoding="utf-8"?>
<!-- Generator: Adobe Illustrator 18.0.0, SVG Export Plug-In . SVG Version: 6.00 Build 0)  -->
<!DOCTYPE svg PUBLIC "-//W3C//DTD SVG 1.1//EN" "http://www.w3.org/Graphics/SVG/1.1/DTD/svg11.dtd">
<svg version="1.1" id="Layer_1" xmlns="http://www.w3.org/2000/svg" xmlns:xlink="http://www.w3.org/1999/xlink" x="0px" y="0px"
	 viewBox="0 0 360 360" enable-background="new 0 0 360 360" xml:space="preserve">
<g>
	<path d="M231.3,67.3c-4.2,0-9.7-0.2-16.3-0.6L200,137.3c3.9-0.3,8-0.4,12.1-0.4c17.7,0,33.3,4.2,46.9,12.7c1.2,0.7,2.3,1.5,3.5,2.3
		l18.4-87.3C261.6,66.4,245,67.3,231.3,67.3z"/>
	<path d="M195.9,333.9c-9.4,0-19.5-1.6-30.1-4.9c-10.7-3.3-19.9-7.8-27.6-13.6c-5-3.7-8.3-7.6-10.1-11.6c-1.4-2.1-2.2-4.3-2.2-6.3
		c0-24.4,21.7-37.5,50.1-46.9l-5.4,26.6c-1,5.1-2.3,9.6-3.8,13.4c1.1,1.2,2.2,2.6,3.3,4c0.5,0.8,1.5,2.2,3,4.3
		c1.5,2.1,2.7,3.6,3.5,4.5l3.3,3.8c1.6,1.8,3,3,4.3,3.8l4.8,2.9c1.9,1,4,1.6,6.2,2c2.2,0.4,4.6,0.6,7.2,0.6c8.2,0,15.8-2.4,22.7-7.2
		c4.7-9.2,8.5-20.3,11.3-33.6l15.6-74c-2.6-8.9-6.4-16.4-11.4-22.2c-10.4-12.1-24.1-18.2-41.1-18.2c-1.5,0-3.1,0.1-4.6,0.1l-4,19.1
		c-11.7,9.9-23.9,18.1-34.3,18.1c-17.6,0-22.6-6.8-22.6-16.7c0-4.5,0.9-9.5,2.3-14.4l32.9-153.4h-66.3L71.2,167.6
		c-1.8,8.6-2.7,15.8-2.7,23c0,33.8,20.8,49.2,56,49.2c18.1,0,41.1-16.2,61.4-34.7l-6.8,31.1c-42.9,12.6-78.1,25.7-78.1,67.7
		c0,29.3,25.7,48.7,53.3,48.7c16.9,0,36.8-4,53.3-19.2C203.7,333.7,199.9,333.9,195.9,333.9z"/>
	<path d="M287,29.3l1.2,0.6l3.3-15.7H226l-4.2,20.1C239.3,33.6,261,31.9,287,29.3z"/>
</g>
</svg>
