<?xml version="1.0" encoding="utf-8"?>
<!-- Generator: Adobe Illustrator 18.0.0, SVG Export Plug-In . SVG Version: 6.00 Build 0)  -->
<!DOCTYPE svg PUBLIC "-//W3C//DTD SVG 1.1//EN" "http://www.w3.org/Graphics/SVG/1.1/DTD/svg11.dtd">
<svg version="1.1" id="Layer_1" xmlns="http://www.w3.org/2000/svg" xmlns:xlink="http://www.w3.org/1999/xlink" x="0px" y="0px"
	 viewBox="0 0 360 360" enable-background="new 0 0 360 360" xml:space="preserve">
<g>
	<path d="M105.3,174.2c22.7-7.3,31.1-19.6,37.8-44.3l19.9-72.4c0.2-0.6,0.3-1.1,0.5-1.6h-49.1l-1.8,6.9h23.5L105.3,174.2z"/>
	<path d="M98.6,291.9l19.9-72.4c2.9-10.5,3.6-16.7,3.6-21.4c0-11.8-5.6-18.2-17.1-22.6L69.5,304H47.4l-1.8,6.9h49.2
		C95.1,306.3,96.1,300.5,98.6,291.9z"/>
	<path d="M190.8,55.9l-18.7,68.3c-7.6,28.3-17.7,43.5-44.6,50.3v0.7c13,4,20.6,10.5,20.6,25c0,5.1-1.1,13.8-4.3,25.4L125,294
		c-2.3,8-3.5,12.9-4,16.8h146.2l25.4-79.7h-8C260,284.4,214.7,304,169.8,304h-25.4l33.7-122.1h26.1c25.4,0,34.4,15.2,34.4,32.2
		c0,4.7-0.4,9.8-1.4,15.2h8.3l26.1-93.1h-8c-15.2,33.3-35.5,38.8-60.5,38.8H180l30.8-112.3h22.1c46.4,0,66.6,15.9,66.6,75.3h6.9
		l16.3-82.2H190.8z"/>
</g>
</svg>
