<?xml version="1.0" encoding="utf-8"?>
<!-- Generator: Adobe Illustrator 18.0.0, SVG Export Plug-In . SVG Version: 6.00 Build 0)  -->
<!DOCTYPE svg PUBLIC "-//W3C//DTD SVG 1.1//EN" "http://www.w3.org/Graphics/SVG/1.1/DTD/svg11.dtd">
<svg version="1.1" id="Layer_1" xmlns="http://www.w3.org/2000/svg" xmlns:xlink="http://www.w3.org/1999/xlink" x="0px" y="0px"
	 viewBox="0 0 360 360" enable-background="new 0 0 360 360" xml:space="preserve">
<g>
	<path d="M175.9,120.8l-0.1,0.2h0.3C176,121,176,120.9,175.9,120.8z"/>
	<path d="M176.8,185.6c6.2-2.1,12.3-4.6,18.3-7.6c6-3,11.9-6.3,17.6-10c5.7-3.7,11.2-7.7,16.3-12.1c4.4-3.7,8.5-7.6,12.3-11.8
		l0.5-1.7c-4,1.3-8.1,2.3-12.4,2.9c-4.8,0.7-9.6,0.5-14.2-0.7c-9.6-2.4-17.9-6-25-10.7l-42.3,158c-4.1,15.6-10.1,20-18.2,20
		c-2.3,0-3.8-0.3-4.9-0.9c7.2-2,10.4-9,10.4-15.9c0-12.7-7.8-19.1-18-19.1c-9.3,0-16.8,9.3-16.8,18.8c0,15.3,11.9,22.6,28.1,22.6
		c31,0,68.9-10.7,84.3-67.5l14-51.9L176.8,185.6z"/>
	<path d="M233.4,42c-14.2,0-26.1,11.9-26.1,26.1s11.6,26.1,26.1,26.1c14.5,0,26.1-11.6,26.1-26.1S247.6,42,233.4,42z"/>
</g>
</svg>
