<?xml version="1.0" encoding="utf-8"?>
<!-- Generator: Adobe Illustrator 18.0.0, SVG Export Plug-In . SVG Version: 6.00 Build 0)  -->
<!DOCTYPE svg PUBLIC "-//W3C//DTD SVG 1.1//EN" "http://www.w3.org/Graphics/SVG/1.1/DTD/svg11.dtd">
<svg version="1.1" id="Layer_1" xmlns="http://www.w3.org/2000/svg" xmlns:xlink="http://www.w3.org/1999/xlink" x="0px" y="0px"
	 viewBox="0 0 360 360" enable-background="new 0 0 360 360" xml:space="preserve">
<g>
	<path d="M131.8,197.8c-5.4,1.6-9.7,2.2-12.9,2c0.1-21.4-4.9-38.8-15.1-52c-3.6-4.6-8-8.3-13.2-10.9c-4.2-2.2-8.2-3.6-12-4.2
		c3.3,19.2,12.2,37,24.6,50.9c-26.7,7.9-51.5,24.7-62.4,49.8c0.6,1.7,1.3,3.5,2,5.2c3.8,9.1,8.5,17.6,14.3,25.7
		c11.8,16.9,26.4,29.9,43.6,38.8c17.2,8.9,32.2,11.8,44.8,8.6c12.6-3.2,22.5-11.9,29.9-26.1c10.1-19.6,11.6-42.2,4.5-67.9
		c-6.5-23.8-18.3-43.8-35.3-59.8c1.5,13.1-0.1,24.2-4.8,33.3C137.9,194.7,135.3,197,131.8,197.8z"/>
	<path d="M284.1,107.1c0-52.2-46.7-78.7-95.2-78.7c-47.9,0-102,23.6-110.5,73.5c11.6-2.4,23.4-0.4,35.5,5.8
		c12.3,6.4,21.2,17,26.7,31.9c1.4,0.2,2.6,0.5,3.6,1c21.8,11.3,40,28.3,54.5,51.1c14.1,22,22.5,45.8,25.1,71.3
		c2.6,25.1-1,48-10.8,68.7c26.9-16.6,45.9-43.3,45.9-78.6c0-25.6-17.4-56.8-34.3-74.6C256.2,168.4,284.1,144.1,284.1,107.1z
		 M216.4,170.2c-18.8-22-54-45.8-54-80.1c0-26.1,18.3-47.6,45.3-47.6c33.4,0,65,27.9,65,62.2C272.7,138.7,246.1,162.9,216.4,170.2z"
		/>
</g>
</svg>
