<?xml version="1.0" encoding="utf-8"?>
<!-- Generator: Adobe Illustrator 18.0.0, SVG Export Plug-In . SVG Version: 6.00 Build 0)  -->
<!DOCTYPE svg PUBLIC "-//W3C//DTD SVG 1.1//EN" "http://www.w3.org/Graphics/SVG/1.1/DTD/svg11.dtd">
<svg version="1.1" id="Layer_1" xmlns="http://www.w3.org/2000/svg" xmlns:xlink="http://www.w3.org/1999/xlink" x="0px" y="0px"
	 viewBox="0 0 360 360" enable-background="new 0 0 360 360" xml:space="preserve">
<g>
	<path d="M316,36.4c-9.1-10-22.4-14.9-39.7-14.9c-21.9,0-42.1,9.1-60.5,27.2c-8.4,8.4-16.3,18.1-23.6,29.1
		c-7.3,11-14.3,22.5-21,34.6c-6.7,12.1-13.3,24.4-19.8,36.9c-6.4,12.5-13,24.4-19.7,35.8c-9.6,16-19,29-28.3,39l-0.8,3
		c5.6-6.7,11.4-10.8,17.5-12.4c6.2-1.7,12.2-1.7,17.8-0.2c7.7,2.1,12.9,5.4,15.7,9.8c2.7,3.8,4.4,8.2,5,13.1c2-2.6,3.9-5.5,5.8-8.7
		c4.1-7,8-15.1,11.7-24.3c3.7-9.1,7.3-18.8,10.9-29c3.6-10.2,7.2-20.6,10.9-31.3c3.7-10.7,7.6-21,11.6-31c4-10,8.4-19.5,13-28.4
		c4.6-8.9,9.7-16.7,15.3-23.3c5.6-6.6,11.7-11.9,18.4-15.7c6.7-3.9,13.1-5.8,19.3-5.8c6.2,0,10.9,0.8,14.1,2.5
		c9.4,4.7,14.1,13.1,14.1,25.1c0,10.2-3.9,20.4-11.6,30.6c-3.6,4.8-7.9,9.2-12.8,13.2c-4.9,4-10.2,7.3-15.9,10
		c-5.7,2.7-10.9,4.5-15.7,5.4c-4.8,0.9-8.8,1.4-11.9,1.4c-3.1,0-6-0.2-8.7-0.5c-1.1,2.5-1.6,5.3-1.6,8.4c0,10.5,3.8,18.8,11.4,24.8
		c3.4,2.6,7.7,3.9,13,3.9c5.3,0,11-1.2,17.2-3.7c12.1-4.9,23.6-13.4,34.4-25.5c17.7-19.9,26.5-41.3,26.5-64.1
		C328.2,57,324.1,45.3,316,36.4z"/>
	<path d="M127.5,220.1l-1.7-0.5c-3.2-0.9-8.2,1.8-15.1,8.2c-6.9,6.3-12.1,15.7-15.6,28.1L85,292c9.6,1.1,20.2,3.9,31.5,8.6
		l14.7-52.8c2.3-8.2,3.4-14.6,3.3-19.2C134.4,224.1,132,221.3,127.5,220.1z"/>
	<path d="M47.5,294c2.9,1.4,6.6,2.2,11.1,2.2l16.2-57.9c-2.3-0.1-4.8-0.1-7.4-0.1c-7.5,0-15.3,3.2-23.4,9.5
		c-3.6,2.9-6.6,6.3-8.8,10.2c-2.2,3.9-3.3,8.5-3.3,14c0,5.4,2.6,10.9,7.7,16.3C41.9,290.5,44.6,292.5,47.5,294z"/>
	<path d="M184.5,268.1c-9.9-2.4-20.1-5.1-30.6-8.2c-1.5,3.7-2.9,7.9-4.2,12.5l-10.9,39c3.4,1.8,6.7,3.6,10.1,5.5
		c6.2,3.4,12.7,6.6,19.4,9.5L184.5,268.1z"/>
	<path d="M280.9,256.3c-3,6.6-8.6,11.8-16.5,15.6c-3.5,1.8-7.3,3-11.4,3.9c-4.1,0.8-8.3,1.2-12.7,1.2c-4.3,0-9.4-0.4-15.3-1.2
		c-5.5-0.8-11.1-1.7-16.8-2.7c-0.6,2.4-1.2,4.9-1.9,7.5l-15,53.7c1.4,0.4,2.8,0.7,4.3,1.1c8.7,2.1,18.6,3.2,29.7,3.2
		c11.1,0,22-3.6,32.8-10.9c5.2-3.4,9.9-7.4,14.1-12.1c4.3-4.7,8-9.7,11.1-15.1c3.1-5.4,5.5-11,7.3-17c1.8-5.9,2.6-11.8,2.6-17.6
		S289.1,256.9,280.9,256.3z"/>
</g>
</svg>
