<?xml version="1.0" encoding="utf-8"?>
<!-- Generator: Adobe Illustrator 18.0.0, SVG Export Plug-In . SVG Version: 6.00 Build 0)  -->
<!DOCTYPE svg PUBLIC "-//W3C//DTD SVG 1.1//EN" "http://www.w3.org/Graphics/SVG/1.1/DTD/svg11.dtd">
<svg version="1.1" id="Patterns" xmlns="http://www.w3.org/2000/svg" xmlns:xlink="http://www.w3.org/1999/xlink" x="0px" y="0px"
	 viewBox="0 0 800 800" enable-background="new 0 0 800 800" xml:space="preserve">
<pattern  width="800" height="800" patternUnits="userSpaceOnUse" id="Nueva_muestra_de_motivo_24" viewBox="0 -800 800 800" overflow="visible">
	<g>
		<polygon fill="none" points="0,0 800,0 800,-800 0,-800 		"/>
		<polygon fill="#A1C3D1" points="533.3,-250 400,-325.4 266.7,-250 133.3,-325.4 0,-250 0,-249.6 133.3,-325 266.7,-249.6 
			400,-325 533.3,-249.6 666.7,-325 800,-249.6 800,-250 666.7,-325.4 		"/>
		<polygon fill="#A1C3D1" points="132.5,0 133.3,0 133.3,0 133.3,0 134.1,0 133.3,-0.5 		"/>
		<polygon fill="#A1C3D1" points="533.3,-275 400,-350.4 266.7,-275 133.3,-350.4 0,-275 0,-274.6 133.3,-350 266.7,-274.6 
			400,-350 533.3,-274.6 666.7,-350 800,-274.6 800,-275 666.7,-350.4 		"/>
		<polygon fill="#A1C3D1" points="533.3,-225 400,-300.4 266.7,-225 133.3,-300.4 0,-225 0,-224.6 133.3,-300 266.7,-224.6 
			400,-300 533.3,-224.6 666.7,-300 800,-224.6 800,-225 666.7,-300.4 		"/>
		<polygon fill="#A1C3D1" points="88.4,0 89.1,0 133.3,-25 177.5,0 178.2,0 133.3,-25.4 		"/>
		<polygon fill="#A1C3D1" points="44.2,0 45,0 133.3,-50 221.6,0 222.4,0 133.3,-50.4 		"/>
		<polygon fill="#A1C3D1" points="533.3,-300 400,-375.4 266.7,-300 133.3,-375.4 0,-300 0,-299.6 133.3,-375 266.7,-299.6 
			400,-375 533.3,-299.6 666.7,-375 800,-299.6 800,-300 666.7,-375.4 		"/>
		<polygon fill="#A1C3D1" points="533.3,-350 400,-425.4 266.7,-350 133.3,-425.4 0,-350 0,-349.6 133.3,-425 266.7,-349.6 
			400,-425 533.3,-349.6 666.7,-425 800,-349.6 800,-350 666.7,-425.4 		"/>
		<polygon fill="#A1C3D1" points="311.6,-800 310.8,-800 266.7,-775 222.5,-800 221.7,-800 266.7,-774.6 		"/>
		<polygon fill="#A1C3D1" points="533.3,-400 400,-475.4 266.7,-400 133.3,-475.4 0,-400 0,-399.6 133.3,-475 266.7,-399.6 
			400,-475 533.3,-399.6 666.7,-475 800,-399.6 800,-400 666.7,-475.4 		"/>
		<polygon fill="#A1C3D1" points="533.3,-375 400,-450.4 266.7,-375 133.3,-450.4 0,-375 0,-374.6 133.3,-450 266.7,-374.6 
			400,-450 533.3,-374.6 666.7,-450 800,-374.6 800,-375 666.7,-450.4 		"/>
		<polygon fill="#A1C3D1" points="267.4,-800 265.9,-800 266.7,-799.6 		"/>
		<polygon fill="#A1C3D1" points="533.3,-325 400,-400.4 266.7,-325 133.3,-400.4 0,-325 0,-324.6 133.3,-400 266.7,-324.6 
			400,-400 533.3,-324.6 666.7,-400 800,-324.6 800,-325 666.7,-400.4 		"/>
		<polygon fill="#A1C3D1" points="355.8,-800 355,-800 266.7,-750 178.3,-800 177.6,-800 266.7,-749.6 		"/>
		<polygon fill="#A1C3D1" points="400,-800 399.2,-800 266.7,-725 134.1,-800 133.4,-800 266.7,-724.6 		"/>
		<polygon fill="#A1C3D1" points="533.3,-200 400,-275.4 266.7,-200 133.3,-275.4 0,-200 0,-199.6 133.3,-275 266.7,-199.5 
			400,-275 533.3,-199.5 666.7,-275 800,-199.6 800,-200 666.7,-275.4 		"/>
		<polygon fill="#A1C3D1" points="266.7,0 267.5,0 400,-75 532.5,0 533.3,0 400,-75.4 		"/>
		<polygon fill="#A1C3D1" points="533.3,-75 400,-150.4 266.7,-75 133.3,-150.4 0,-75 0,-74.6 133.3,-150 266.7,-74.5 400,-150 
			533.3,-74.5 666.7,-150 800,-74.6 800,-75 666.7,-150.4 		"/>
		<polygon fill="#A1C3D1" points="533.3,-50 400,-125.4 266.7,-50 133.3,-125.4 0,-50 0,-49.6 133.3,-125 266.7,-49.5 400,-125 
			533.3,-49.5 666.7,-125 800,-49.6 800,-50 666.7,-125.4 		"/>
		<polygon fill="#A1C3D1" points="665.9,0 666.6,0 666.7,0 666.7,0 667.5,0 666.7,-0.5 		"/>
		<polygon fill="#A1C3D1" points="533.4,0 534.2,0 666.7,-75 799.2,0 800,0 666.7,-75.4 		"/>
		<polygon fill="#A1C3D1" points="0,0 0.8,0 133.3,-75 265.8,0 266.6,0 133.3,-75.4 		"/>
		<polygon fill="#A1C3D1" points="621.8,0 622.4,0 666.7,-25 710.9,0 711.6,0 666.7,-25.4 		"/>
		<polygon fill="#A1C3D1" points="533.3,-25 400,-100.4 266.7,-25 133.3,-100.4 0,-25 0,-24.6 133.3,-100 266.7,-24.5 400,-100 
			533.3,-24.5 666.7,-100 800,-24.6 800,-25 666.7,-100.4 		"/>
		<polygon fill="#A1C3D1" points="533.3,-100 400,-175.4 266.7,-100 133.3,-175.4 0,-100 0,-99.6 133.3,-175 266.7,-99.5 400,-175 
			533.3,-99.5 666.7,-175 800,-99.6 800,-100 666.7,-175.4 		"/>
		<polygon fill="#A1C3D1" points="399.2,0 399.9,0 400,0 400,0 400.8,0 400,-0.5 		"/>
		<polygon fill="#A1C3D1" points="533.3,-175 400,-250.4 266.7,-175 133.3,-250.4 0,-175 0,-174.6 133.3,-250 266.7,-174.5 
			400,-250 533.3,-174.5 666.7,-250 800,-174.6 800,-175 666.7,-250.4 		"/>
		<polygon fill="#A1C3D1" points="533.3,-150 400,-225.4 266.7,-150 133.3,-225.4 0,-150 0,-149.6 133.3,-225 266.7,-149.5 
			400,-225 533.3,-149.5 666.7,-225 800,-149.6 800,-150 666.7,-225.4 		"/>
		<polygon fill="#A1C3D1" points="310.9,0 311.7,0 400,-50 488.3,0 489.1,0 400,-50.4 		"/>
		<polygon fill="#A1C3D1" points="533.3,-125 400,-200.4 266.7,-125 133.3,-200.4 0,-125 0,-124.6 133.3,-200 266.7,-124.5 
			400,-200 533.3,-124.5 666.7,-200 800,-124.6 800,-125 666.7,-200.4 		"/>
		<polygon fill="#A1C3D1" points="355.1,0 355.8,0 400,-25 444.2,0 444.9,0 400,-25.4 		"/>
		<polygon fill="#A1C3D1" points="577.6,0 578.4,0 666.7,-50 755,0 755.8,0 666.7,-50.4 		"/>
		<polygon fill="#A1C3D1" points="533.3,-575 400,-650.5 266.7,-575 133.3,-650.5 0,-575 0,-574.6 133.3,-650 266.7,-574.6 
			400,-650 533.3,-574.6 666.7,-650 800,-574.6 800,-575 666.7,-650.5 		"/>
		<polygon fill="#A1C3D1" points="533.3,-650 400,-725.5 266.7,-650 133.3,-725.5 0,-650 0,-649.6 133.3,-725 266.7,-649.6 
			400,-725 533.3,-649.6 666.7,-725 800,-649.6 800,-650 666.7,-725.5 		"/>
		<polygon fill="#A1C3D1" points="88.3,-800 0,-750 0,-749.6 89.1,-800 		"/>
		<polygon fill="#A1C3D1" points="755.1,-800 800,-774.6 800,-775 755.9,-800 		"/>
		<polygon fill="#A1C3D1" points="132.5,-800 0,-725 0,-724.6 133.3,-800 		"/>
		<polygon fill="#A1C3D1" points="533.3,-600 400,-675.5 266.7,-600 133.3,-675.5 0,-600 0,-599.6 133.3,-675 266.7,-599.6 
			400,-675 533.3,-599.6 666.7,-675 800,-599.6 800,-600 666.7,-675.5 		"/>
		<polygon fill="#A1C3D1" points="533.3,-625 400,-700.5 266.7,-625 133.3,-700.5 0,-625 0,-624.6 133.3,-700 266.7,-624.6 
			400,-700 533.3,-624.6 666.7,-700 800,-624.6 800,-625 666.7,-700.5 		"/>
		<polygon fill="#A1C3D1" points="710.9,-800 800,-749.6 800,-750 711.7,-800 		"/>
		<polygon fill="#A1C3D1" points="666.7,-800 800,-724.6 800,-725 667.5,-800 		"/>
		<polygon fill="#A1C3D1" points="533.3,-425 400,-500.4 266.7,-425 133.3,-500.4 0,-425 0,-424.6 133.3,-500 266.7,-424.6 
			400,-500 533.3,-424.6 666.7,-500 800,-424.6 800,-425 666.7,-500.4 		"/>
		<polygon fill="#A1C3D1" points="533.3,-675 400,-750.5 266.7,-675 133.3,-750.5 0,-675 0,-674.6 133.3,-750 266.7,-674.6 
			400,-750 533.3,-674.6 666.7,-750 800,-674.6 800,-675 666.7,-750.5 		"/>
		<polygon fill="#A1C3D1" points="533.3,-700 400,-775.5 266.7,-700 133.3,-775.5 0,-700 0,-699.6 133.3,-775 266.7,-699.6 
			400,-775 533.3,-699.6 666.7,-775 800,-699.6 800,-700 666.7,-775.5 		"/>
		<polygon fill="#A1C3D1" points="44.1,-800 0,-775 0,-774.6 44.9,-800 		"/>
		<polygon fill="#A1C3D1" points="800,-799.6 800,-800 799.3,-800 		"/>
		<polygon fill="#A1C3D1" points="533.3,-475 400,-550.4 266.7,-475 133.3,-550.4 0,-475 0,-474.6 133.3,-550 266.7,-474.6 
			400,-550 533.3,-474.6 666.7,-550 800,-474.6 800,-475 666.7,-550.4 		"/>
		<polygon fill="#A1C3D1" points="0,-800 0,-799.6 0.7,-800 		"/>
		<polygon fill="#A1C3D1" points="622.4,-800 621.7,-800 533.3,-750 445,-800 444.2,-800 533.3,-749.6 		"/>
		<polygon fill="#A1C3D1" points="533.3,-450 400,-525.4 266.7,-450 133.3,-525.4 0,-450 0,-449.6 133.3,-525 266.7,-449.6 
			400,-525 533.3,-449.6 666.7,-525 800,-449.6 800,-450 666.7,-525.4 		"/>
		<polygon fill="#A1C3D1" points="666.6,-800 665.9,-800 533.3,-725 400.8,-800 400,-800 533.3,-724.6 		"/>
		<polygon fill="#A1C3D1" points="533.3,-500 400,-575.5 266.7,-500 133.3,-575.5 0,-500 0,-499.6 133.3,-575 266.7,-499.6 
			400,-575 533.3,-499.6 666.7,-575 800,-499.6 800,-500 666.7,-575.5 		"/>
		<polygon fill="#A1C3D1" points="578.3,-800 577.5,-800 533.3,-775 489.2,-800 488.4,-800 533.3,-774.6 		"/>
		<polygon fill="#A1C3D1" points="533.3,-525 400,-600.5 266.7,-525 133.3,-600.5 0,-525 0,-524.6 133.3,-600 266.7,-524.6 
			400,-600 533.3,-524.6 666.7,-600 800,-524.6 800,-525 666.7,-600.5 		"/>
		<polygon fill="#A1C3D1" points="534.1,-800 532.6,-800 533.3,-799.6 		"/>
		<polygon fill="#A1C3D1" points="533.3,-550 400,-625.5 266.7,-550 133.3,-625.5 0,-550 0,-549.6 133.3,-625 266.7,-549.6 
			400,-625 533.3,-549.6 666.7,-625 800,-549.6 800,-550 666.7,-625.5 		"/>
		<polygon fill="#A1C3D1" points="533.3,-674.6 400,-750 266.7,-674.6 133.3,-750 133.3,-725.5 266.7,-650 400,-725.5 533.3,-650 
			666.7,-725.5 800,-650 800,-674.6 666.7,-750 		"/>
		<polygon fill="#A1C3D1" points="133.3,-750 0,-674.6 0,-650 133.3,-725.5 		"/>
		<polygon fill="#F3E7D9" points="533.3,-699.6 400,-775 266.7,-699.6 133.3,-775 0,-699.6 0,-675 133.3,-750.5 266.7,-675 
			400,-750.5 533.3,-675 666.7,-750.5 800,-675 800,-699.6 666.7,-775 		"/>
		<polygon fill="#A1C3D1" points="666.6,-800 533.3,-724.6 400,-800 400,-800 266.7,-724.6 133.4,-800 133.3,-800 0,-724.6 0,-700 
			133.3,-775.5 266.7,-700 400,-775.5 533.3,-700 666.7,-775.5 800,-700 800,-724.6 666.7,-800 		"/>
		<polygon fill="#F3E7D9" points="399.2,-800 355.8,-800 266.7,-749.6 177.6,-800 134.1,-800 266.7,-725 		"/>
		<polygon fill="#F3E7D9" points="667.5,-800 800,-725 800,-749.6 710.9,-800 		"/>
		<polygon fill="#F3E7D9" points="665.9,-800 622.4,-800 533.3,-749.6 444.2,-800 400.8,-800 533.3,-725 		"/>
		<polygon fill="#F3E7D9" points="89.1,-800 0,-749.6 0,-725 132.5,-800 		"/>
		<polygon fill="#A1C3D1" points="533.3,-574.6 400,-650 266.7,-574.6 133.3,-650 0,-574.6 0,-550 133.3,-625.5 266.7,-550 
			400,-625.5 533.3,-550 666.7,-625.5 800,-550 800,-574.6 666.7,-650 		"/>
		<polygon fill="#F3E7D9" points="533.3,-599.6 400,-675 266.7,-599.6 133.3,-675 0,-599.6 0,-575 133.3,-650.5 266.7,-575 
			400,-650.5 533.3,-575 666.7,-650.5 800,-575 800,-599.6 666.7,-675 		"/>
		<polygon fill="#A1C3D1" points="533.3,-624.6 400,-700 266.7,-624.6 133.3,-700 0,-624.6 0,-600 133.3,-675.5 266.7,-600 
			400,-675.5 533.3,-600 666.7,-675.5 800,-600 800,-624.6 666.7,-700 		"/>
		<polygon fill="#F3E7D9" points="533.3,-649.6 400,-725 266.7,-649.6 133.3,-725 0,-649.6 0,-625 133.3,-700.5 266.7,-625 
			400,-700.5 533.3,-625 666.7,-700.5 800,-625 800,-649.6 666.7,-725 		"/>
		<polygon fill="#A1C3D1" points="533.3,-474.6 400,-550 266.7,-474.6 133.3,-550 0,-474.6 0,-450 133.3,-525.4 266.7,-450 
			400,-525.4 533.3,-450 666.7,-525.4 800,-450 800,-474.6 666.7,-550 		"/>
		<polygon fill="#F3E7D9" points="533.3,-499.6 400,-575 266.7,-499.6 133.3,-575 0,-499.6 0,-475 133.3,-550.4 266.7,-475 
			400,-550.4 533.3,-475 666.7,-550.4 800,-475 800,-499.6 666.7,-575 		"/>
		<polygon fill="#A1C3D1" points="533.3,-524.6 400,-600 266.7,-524.6 133.3,-600 0,-524.6 0,-500 133.3,-575.5 266.7,-500 
			400,-575.5 533.3,-500 666.7,-575.5 800,-500 800,-524.6 666.7,-600 		"/>
		<polygon fill="#F3E7D9" points="533.3,-549.6 400,-625 266.7,-549.6 133.3,-625 0,-549.6 0,-525 133.3,-600.5 266.7,-525 
			400,-600.5 533.3,-525 666.7,-600.5 800,-525 800,-549.6 666.7,-625 		"/>
		<polygon fill="#A1C3D1" points="533.3,-374.6 400,-450 266.7,-374.6 133.3,-450 0,-374.6 0,-350 133.3,-425.4 266.7,-350 
			400,-425.4 533.3,-350 666.7,-425.4 800,-350 800,-374.6 666.7,-450 		"/>
		<polygon fill="#F3E7D9" points="533.3,-399.6 400,-475 266.7,-399.6 133.3,-475 0,-399.6 0,-375 133.3,-450.4 266.7,-375 
			400,-450.4 533.3,-375 666.7,-450.4 800,-375 800,-399.6 666.7,-475 		"/>
		<polygon fill="#A1C3D1" points="533.3,-424.6 400,-500 266.7,-424.6 133.3,-500 0,-424.6 0,-400 133.3,-475.4 266.7,-400 
			400,-475.4 533.3,-400 666.7,-475.4 800,-400 800,-424.6 666.7,-500 		"/>
		<polygon fill="#F3E7D9" points="533.3,-449.6 400,-525 266.7,-449.6 133.3,-525 0,-449.6 0,-425 133.3,-500.4 266.7,-425 
			400,-500.4 533.3,-425 666.7,-500.4 800,-425 800,-449.6 666.7,-525 		"/>
		<polygon fill="#A1C3D1" points="533.3,-274.6 400,-350 266.7,-274.6 133.3,-350 0,-274.6 0,-250 133.3,-325.4 266.7,-250 
			400,-325.4 533.3,-250 666.7,-325.4 800,-250 800,-274.6 666.7,-350 		"/>
		<polygon fill="#F3E7D9" points="533.3,-299.6 400,-375 266.7,-299.6 133.3,-375 0,-299.6 0,-275 133.3,-350.4 266.7,-275 
			400,-350.4 533.3,-275 666.7,-350.4 800,-275 800,-299.6 666.7,-375 		"/>
		<polygon fill="#A1C3D1" points="533.3,-324.6 400,-400 266.7,-324.6 133.3,-400 0,-324.6 0,-300 133.3,-375.4 266.7,-300 
			400,-375.4 533.3,-300 666.7,-375.4 800,-300 800,-324.6 666.7,-400 		"/>
		<polygon fill="#F3E7D9" points="533.3,-349.6 400,-425 266.7,-349.6 133.3,-425 0,-349.6 0,-325 133.3,-400.4 266.7,-325 
			400,-400.4 533.3,-325 666.7,-400.4 800,-325 800,-349.6 666.7,-425 		"/>
		<polygon fill="#A1C3D1" points="533.3,-174.5 400,-250 266.7,-174.5 133.3,-250 0,-174.6 0,-150 133.3,-225.4 266.7,-150 
			400,-225.4 533.3,-150 666.7,-225.4 800,-150 800,-174.6 666.7,-250 		"/>
		<polygon fill="#F3E7D9" points="533.3,-199.5 400,-275 266.7,-199.5 133.3,-275 0,-199.6 0,-175 133.3,-250.4 266.7,-175 
			400,-250.4 533.3,-175 666.7,-250.4 800,-175 800,-199.6 666.7,-275 		"/>
		<polygon fill="#A1C3D1" points="533.3,-224.6 400,-300 266.7,-224.6 133.3,-300 0,-224.6 0,-200 133.3,-275.4 266.7,-200 
			400,-275.4 533.3,-200 666.7,-275.4 800,-200 800,-224.6 666.7,-300 		"/>
		<polygon fill="#F3E7D9" points="533.3,-249.6 400,-325 266.7,-249.6 133.3,-325 0,-249.6 0,-225 133.3,-300.4 266.7,-225 
			400,-300.4 533.3,-225 666.7,-300.4 800,-225 800,-249.6 666.7,-325 		"/>
		<polygon fill="#A1C3D1" points="533.3,-74.5 400,-150 266.7,-74.5 133.3,-150 0,-74.6 0,-50 133.3,-125.4 266.7,-50 400,-125.4 
			533.3,-50 666.7,-125.4 800,-50 800,-74.6 666.7,-150 		"/>
		<polygon fill="#F3E7D9" points="533.3,-99.5 400,-175 266.7,-99.5 133.3,-175 0,-99.6 0,-75 133.3,-150.4 266.7,-75 400,-150.4 
			533.3,-75 666.7,-150.4 800,-75 800,-99.6 666.7,-175 		"/>
		<polygon fill="#A1C3D1" points="533.3,-124.5 400,-200 266.7,-124.5 133.3,-200 0,-124.6 0,-100 133.3,-175.4 266.7,-100 
			400,-175.4 533.3,-100 666.7,-175.4 800,-100 800,-124.6 666.7,-200 		"/>
		<polygon fill="#F3E7D9" points="533.3,-149.5 400,-225 266.7,-149.5 133.3,-225 0,-149.6 0,-125 133.3,-200.4 266.7,-125 
			400,-200.4 533.3,-125 666.7,-200.4 800,-125 800,-149.6 666.7,-225 		"/>
		<polygon fill="#A1C3D1" points="578.4,0 621.8,0 666.7,-25.4 711.6,0 755,0 666.7,-50 		"/>
		<polygon fill="#A1C3D1" points="311.7,0 355.1,0 400,-25.4 444.9,0 488.3,0 400,-50 		"/>
		<polygon fill="#A1C3D1" points="45,0 88.4,0 133.3,-25.4 178.2,0 221.6,0 133.3,-50 		"/>
		<polygon fill="#F3E7D9" points="534.2,0 577.6,0 666.7,-50.4 755.8,0 799.2,0 666.7,-75 		"/>
		<polygon fill="#F3E7D9" points="0.8,0 44.2,0 133.3,-50.4 222.4,0 265.8,0 133.3,-75 		"/>
		<polygon fill="#F3E7D9" points="267.5,0 310.9,0 400,-50.4 489.1,0 532.5,0 400,-75 		"/>
		<polygon fill="#A1C3D1" points="533.3,-24.5 400,-100 266.7,-24.5 133.3,-100 0,-24.6 0,0 0,0 133.3,-75.4 266.6,0 266.7,0 
			400,-75.4 533.3,0 533.4,0 666.7,-75.4 800,0 800,0 800,-24.6 666.7,-100 		"/>
		<polygon fill="#F3E7D9" points="533.3,-49.5 400,-125 266.7,-49.5 133.3,-125 0,-49.6 0,-25 133.3,-100.4 266.7,-25 400,-100.4 
			533.3,-25 666.7,-100.4 800,-25 800,-49.6 666.7,-125 		"/>
		<polygon fill="#A1C3D1" points="621.7,-800 578.3,-800 533.3,-774.6 488.4,-800 445,-800 533.3,-750 		"/>
		<polygon fill="#A1C3D1" points="44.9,-800 0,-774.6 0,-750 88.3,-800 		"/>
		<polygon fill="#A1C3D1" points="711.7,-800 800,-750 800,-774.6 755.1,-800 		"/>
		<polygon fill="#A1C3D1" points="355,-800 311.6,-800 266.7,-774.6 221.7,-800 178.3,-800 266.7,-750 		"/>
		<polygon fill="#F3E7D9" points="0.7,-800 0,-799.6 0,-775 44.1,-800 		"/>
		<polygon fill="#F3E7D9" points="755.9,-800 800,-775 800,-799.6 799.3,-800 		"/>
		<polygon fill="#F3E7D9" points="577.5,-800 534.1,-800 533.3,-799.6 532.6,-800 489.2,-800 533.3,-775 		"/>
		<polygon fill="#F3E7D9" points="310.8,-800 267.4,-800 266.7,-799.6 265.9,-800 222.5,-800 266.7,-775 		"/>
		<polygon fill="#A1C3D1" points="133.3,0 133.3,0 133.3,0 		"/>
		<polygon fill="#A1C3D1" points="399.9,0 400,0 400,0 		"/>
		<polygon fill="#A1C3D1" points="666.6,0 666.7,0 666.7,0 		"/>
		<polygon fill="#F3E7D9" points="355.8,0 399.2,0 400,-0.5 400.8,0 444.2,0 400,-25 		"/>
		<polygon fill="#F3E7D9" points="622.4,0 665.9,0 666.7,-0.5 667.5,0 710.9,0 666.7,-25 		"/>
		<polygon fill="#F3E7D9" points="89.1,0 132.5,0 133.3,-0.5 134.1,0 177.5,0 133.3,-25 		"/>
	</g>
</pattern>
<pattern  id="SVGID_1_" xlink:href="#Nueva_muestra_de_motivo_24" patternTransform="matrix(1.0361 0 0 1.0361 -14.4531 -14.4531)">
</pattern>
<rect fill="url(#SVGID_1_)" width="800" height="800"/>
</svg>
